# AST/ASF file generated using VICON BodyLanguage
# -----------------------------------------------
:version 1.10
:name VICON
:units
  mass 1.0
  length 0.45
  angle deg
:documentation
   .ast/.asf automatically generated from VICON data using
   VICON BodyBuilder and BodyLanguage model FoxedUp or BRILLIANT.MOD
:root
   order TX TY TZ RX RY RZ
   axis XYZ
   position 0 0 0  
   orientation 0 0 0 
:bonedata
  begin
     id 1 
     name lhipjoint
     direction 0.537252 -0.787203 0.302774 
     length 2.29576 
     axis 0 0 0  XYZ
  end
  begin
     id 2 
     name lfemur
     direction 0.34202 -0.939693 0  
     length 7.31114  
     axis 0 0 20  XYZ
    dof rx ry rz
    limits (-160.0 20.0)
           (-70.0 70.0)
           (-60.0 70.0)
  end
  begin
     id 3 
     name ltibia
     direction 0.34202 -0.939693 0   
     length 8.36008   
     axis 0 0 20   XYZ
    dof rx
    limits (-10.0 170.0)
  end
  begin
     id 4 
     name lfoot
     direction 0.0969116 -0.266263 0.959016   
     length 2.16704   
     axis -90 7.62852e-016 20   XYZ
    dof rx rz
    limits (-45.0 90.0)
           (-70.0 20.0)
  end
  begin
     id 5 
     name ltoes
     direction 1.53563e-011 -4.21779e-011 1   
     length 1.08338   
     axis -90 7.62852e-016 20   XYZ
    dof rx
    limits (-90.0 20.0)
  end
  begin
     id 6 
     name rhipjoint
     direction -0.588228 -0.754791 0.290308   
     length 2.39434  
     axis 0 0 0  XYZ 
  end
  begin
     id 7 
     name rfemur
     direction -0.34202 -0.939693 0   
     length 7.45207   
     axis 0 0 -20   XYZ
    dof rx ry rz
    limits (-160.0 20.0)
           (-70.0 70.0)
           (-70.0 60.0)
  end
  begin
     id 8 
     name rtibia
     direction -0.34202 -0.939693 0   
     length 8.03565   
     axis 0 0 -20   XYZ
    dof rx
    limits (-10.0 170.0)
 end
 begin
     id 9 
     name rfoot
     direction -0.107009 -0.294004 0.949795   
     length 2.11509  
     axis -90 -7.62852e-016 -20   XYZ
    dof rx rz
    limits (-45.0 90.0)
           (-20.0 70.0)
  end
  begin
     id 10 
     name rtoes
     direction -1.53533e-011 -4.22004e-011 1   
     length 1.05493   
     axis -90 -7.62852e-016 -20   XYZ
    dof rx
    limits (-90.0 20.0)
  end
  begin
     id 11 
     name lowerback
     direction -0.0115208 0.997969 -0.0626515   
     length 2.03153   
     axis 0 0 0   XYZ
    dof rx ry rz
    limits (-20.0 45.0)
           (-30.0 30.0)
           (-30.0 30.0)
  end
  begin
     id 12 
     name upperback
     direction -0.00423475 0.999974 -0.00583614   
     length 2.03619   
     axis 0 0 0   XYZ
    dof rx ry rz
    limits (-20.0 45.0)
           (-30.0 30.0)
           (-30.0 30.0)
  end
  begin
     id 13 
     name thorax
     direction 0.00289429 0.999728 0.0231573   
     length 2.03921   
     axis 0 0 0   XYZ
    dof rx ry rz
    limits (-20.0 45.0)
           (-30.0 30.0)
           (-30.0 30.0)
  end
  begin
     id 14 
     name lowerneck
     direction 0.0188995 0.987777 0.154721   
     length 1.78836   
     axis 0 0 0   XYZ
    dof rx ry rz
    limits (-20.0 45.0)
           (-30.0 30.0)
           (-30.0 30.0)
  end
  begin
     id 15 
     name upperneck
     direction -0.00612612 0.992995 -0.118   
     length 1.81789   
     axis 0 0 0   XYZ
    dof rx ry rz
    limits (-20.0 45.0)
           (-30.0 30.0)
           (-30.0 30.0)
  end
  begin
     id 16
     name head
     direction -0.00420226 0.998397 -0.0564482  
     length 1.82234  
     axis 0 0 0   XYZ
    dof rx ry rz
    limits (-20.0 45.0)
           (-30.0 30.0)
           (-30.0 30.0)
  end
  begin
     id 17 
     name lclavicle
     direction 0.916488 0.396539 0.0529676  
     length 3.51732  
     axis 0 0 0   XYZ
    dof ry rz
    limits (-20.0 10.0)
           (0.0 20.0)
  end
  begin
     id 18 
     name lhumerus
     direction 1 -4.4896e-011 8.36962e-028   
     length 5.45077   
     axis 180 -30 -90   XYZ
    dof rx ry rz
    limits (-60.0 90.0)
           (-90.0 90.0)
           (-90.0 90.0)
  end
  begin
     id 19
     name lradius
     direction 1 -4.48962e-011 3.01407e-027   
     length 3.05488   
     axis 180 -30 -90   XYZ
    dof rx
    limits (-10.0 170.0)
  end
  begin
     id 20
     name lwrist
     direction 1 -4.49002e-011 4.72961e-027   
     length 1.52744   
     axis -2.72261e-015 90 90   XYZ
    dof ry
    limits (-180.0 0.0)
 end
  begin
     id 21 
     name lhand
     direction 1 -4.4899e-011 9.45681e-027   
     length 0.638818   
     axis -6.0311e-015 90 90   XYZ
    dof rx rz
    limits (-90.0 90.0)
           (-45.0 45.0)
  end
  begin
     id 22 
     name lfingers
     direction 1 -4.48871e-011 1.88632e-026   
     length 0.515032   
     axis -1.20625e-014 90 90   XYZ
    dof rx
    limits (0.0 90.0)
  end
  begin
     id 23
     name lthumb
     direction 0.707107 -6.34964e-011 0.707107   
     length 0.739485   
     axis -90 45 6.32835e-014   XYZ
    dof rx rz
    limits (-45.0 45.0)
           (-45.0 45.0)
  end
  begin
     id 24 
     name rclavicle
     direction -0.949427 0.303202 0.0815894   
     length 3.76167  
     axis 0 0 0   XYZ 
    dof ry rz
    limits (-10.0 20.0)
           (-20.0 0.0)
  end
  begin
     id 25 
     name rhumerus
     direction -1 -4.48971e-011 -6.43969e-018  
     length 4.88702   
     axis 180 30 90   XYZ
    dof rx ry rz
    limits (-90.0 60.0)
           (-90.0 90.0)
           (-90.0 90.0)
  end
  begin
     id 26 
     name rradius
     direction -1 -4.48987e-011 5.46662e-027   
     length 3.22603   
     axis 180 30 90   XYZ
    dof rx
    limits (-10.0 170.0)
  end
  begin
     id 27 
     name rwrist
     direction -1 -4.48956e-011 4.72476e-027   
     length 1.61302   
     axis -2.72261e-015 -90 -90   XYZ
    dof ry
    limits (-180.0 0.0)
  end
  begin
     id 28
     name rhand
     direction -1 -4.4889e-011 9.43571e-027   
     length 0.716293   
     axis -6.0311e-015 -90 -90   XYZ
    dof rx rz
    limits (-90.0 90.0)
           (-45.0 45.0)
  end
  begin
     id 29
     name rfingers
     direction -1 -4.48887e-011 1.88701e-026   
     length 0.577494   
     axis -1.20625e-014 -90 -90   XYZ
    dof rx
    limits (0.0 90.0)
  end
  begin
     id 30
     name rthumb
     direction -0.707107 -6.34825e-011 0.707107   
     length 0.829169   
     axis -90 -45 -6.32835e-014   XYZ
    dof rx rz
    limits (-45.0 45.0)
           (-45.0 45.0)
  end
:hierarchy
  begin
    root lhipjoint rhipjoint lowerback
    lhipjoint lfemur
    lfemur ltibia
    ltibia lfoot
    lfoot ltoes
    rhipjoint rfemur
    rfemur rtibia
    rtibia rfoot
    rfoot rtoes
    lowerback upperback
    upperback thorax
    thorax lowerneck lclavicle rclavicle
    lowerneck upperneck
    upperneck head
    lclavicle lhumerus
    lhumerus lradius
    lradius lwrist
    lwrist lhand lthumb
    lhand lfingers
    rclavicle rhumerus
    rhumerus rradius
    rradius rwrist
    rwrist rhand rthumb
    rhand rfingers
  end

#!OML:ASF F:\VICON\USERDATA\INSTALL\rory3\rory3.ASF
:FULLY-SPECIFIED
:DEGREES
47
root 1.68097 18.4641 -0.189168 207.303 91.3891 196.76
lowerback -8.58548 -2.25914 -0.675059
upperback -2.37097 -2.92043 1.26634
thorax 2.45282 -1.43026 1.37789
lowerneck -11.4722 -12.5443 -7.8066
upperneck 35.7034 -18.2884 7.09226
head 16.1081 -7.46485 1.2036
rclavicle -1.26353e-014 7.55382e-015
rhumerus -30.463 -11.6797 -79.866
rradius 43.4356
rwrist -157.754
rhand -24.4537 -9.12132
rfingers 7.12502
rthumb 2.03918 -39.0913
lclavicle -1.26353e-014 7.55382e-015
lhumerus -36.4728 -15.6709 93.7357
lradius 35.3521
lwrist 10.5549
lhand -7.20354 27.3167
lfingers 7.12502
lthumb 18.6751 56.4403
rfemur -7.94084 -8.39545 16.1334
rtibia 7.44823
rfoot -10.2023 -2.67522
rtoes -16.3978
lfemur -11.9241 9.75937 -19.2508
ltibia 18.1487
lfoot -16.1709 -2.97993
ltoes -25.0897
48
root 1.67357 18.4647 -0.196772 205.933 91.6009 195.462
lowerback -8.30139 -2.22532 -0.607177
upperback -2.26033 -2.88844 1.30144
thorax 2.40744 -1.41674 1.38779
lowerneck -11.5448 -12.5391 -7.82761
upperneck 35.7558 -18.272 7.08288
head 16.1517 -7.45653 1.2009
rclavicle 1.94933e-014 -1.55052e-014
rhumerus -30.2878 -11.4802 -79.7029
rradius 43.8198
rwrist -158.269
rhand -24.6253 -9.16751
rfingers 7.12502
rthumb 1.87345 -39.139
lclavicle 1.94933e-014 -1.55052e-014
lhumerus -36.5123 -15.7784 93.7392
lradius 35.7407
lwrist 10.4599
lhand -6.94998 27.6714
lfingers 7.12502
lthumb 18.9189 56.7713
rfemur -8.10271 -8.19004 16.0353
rtibia 7.77545
rfoot -10.318 -2.66002
rtoes -16.3504
lfemur -11.841 9.71401 -19.3317
ltibia 18.1662
lfoot -16.2437 -2.7009
ltoes -25.3862
49
root 1.66334 18.4642 -0.207329 206.365 91.8527 195.945
lowerback -8.00536 -2.15564 -0.52629
upperback -2.16275 -2.80715 1.27107
thorax 2.33638 -1.3783 1.32849
lowerneck -11.5316 -12.5304 -7.73527
upperneck 35.7618 -18.2721 7.06741
head 16.1372 -7.44665 1.18212
rclavicle -7.06928e-015 1.98785e-015
rhumerus -30.2412 -11.092 -79.627
rradius 44.4252
rwrist -158.873
rhand -24.8201 -8.81165
rfingers 7.12502
rthumb 1.68536 -38.7847
lclavicle -7.06928e-015 1.98785e-015
lhumerus -36.7098 -16.319 93.9281
lradius 36.2109
lwrist 10.9303
lhand -7.77491 27.4373
lfingers 7.12502
lthumb 18.1254 56.6128
rfemur -8.2779 -7.97507 15.8544
rtibia 8.02516
rfoot -10.3356 -2.7024
rtoes -16.755
lfemur -11.8189 9.68648 -19.4935
ltibia 18.2295
lfoot -16.3582 -2.43096
ltoes -25.7872
50
root 1.6517 18.4635 -0.215828 206.353 92.0263 195.99
lowerback -7.71035 -2.12156 -0.427303
upperback -2.02155 -2.776 1.26717
thorax 2.31277 -1.36537 1.27991
lowerneck -11.5663 -12.5238 -7.66094
upperneck 35.7685 -18.2771 7.06901
head 16.1399 -7.43733 1.16848
rclavicle -1.9133e-015 -5.96354e-015
rhumerus -30.2165 -10.6132 -79.6057
rradius 45.2082
rwrist -159.549
rhand -24.9175 -8.45185
rfingers 7.12502
rthumb 1.59122 -38.4257
lclavicle -1.9133e-015 -5.96354e-015
lhumerus -36.8349 -16.6378 94.0146
lradius 36.6841
lwrist 11.2144
lhand -8.29627 27.4168
lfingers 7.12502
lthumb 17.6238 56.638
rfemur -8.46948 -7.81992 15.7319
rtibia 8.34607
rfoot -10.3207 -2.72257
rtoes -16.6562
lfemur -11.7999 9.59676 -19.5928
ltibia 18.2888
lfoot -16.4012 -2.20496
ltoes -25.6253
51
root 1.64153 18.4634 -0.222174 205.422 92.2029 195.084
lowerback -7.47328 -2.1174 -0.374013
upperback -1.84841 -2.78279 1.3295
thorax 2.36059 -1.37174 1.3185
lowerneck -11.7228 -12.5074 -7.62876
upperneck 35.8 -18.2487 7.04328
head 16.1819 -7.41819 1.1475
rclavicle 5.26779e-015 -3.97569e-016
rhumerus -30.0225 -10.1289 -79.5344
rradius 45.8769
rwrist -160.17
rhand -24.9329 -8.26011
rfingers 7.12502
rthumb 1.57633 -38.234
lclavicle 5.26779e-015 -3.97569e-016
lhumerus -36.8212 -16.5567 93.892
lradius 37.1677
lwrist 11.0345
lhand -7.85315 28.0407
lfingers 7.12502
lthumb 18.0501 57.2231
rfemur -8.71718 -7.64864 15.6627
rtibia 8.71796
rfoot -10.3108 -2.74241
rtoes -16.3686
lfemur -11.8132 9.63572 -19.6544
ltibia 18.3568
lfoot -16.4078 -2.10865
ltoes -25.531
52
root 1.62946 18.4631 -0.230146 207.719 92.5396 197.371
lowerback -7.23579 -2.08358 -0.446828
upperback -1.70593 -2.73815 1.33333
thorax 2.37797 -1.35265 1.37298
lowerneck -11.7427 -12.4961 -7.669
upperneck 35.7529 -18.2287 7.08434
head 16.1719 -7.41267 1.17272
rclavicle -6.20705e-014 8.74653e-015
rhumerus -29.76 -9.78176 -79.3808
rradius 46.3578
rwrist -160.666
rhand -25.8778 -8.46076
rfingers 7.12502
rthumb 0.663742 -38.4395
lclavicle -6.20705e-014 8.74653e-015
lhumerus -36.8313 -16.567 93.8226
lradius 37.6442
lwrist 10.8864
lhand -7.51711 28.4463
lfingers 7.12502
lthumb 18.3734 57.5985
rfemur -9.04496 -7.403 15.3669
rtibia 9.10773
rfoot -10.3597 -2.75903
rtoes -16.5912
lfemur -11.8936 9.78808 -19.9506
ltibia 18.4288
lfoot -16.3575 -1.93142
ltoes -25.8244
53
root 1.61473 18.4638 -0.236612 206.427 92.8681 196.017
lowerback -7.02275 -2.02845 -0.383485
upperback -1.56187 -2.67533 1.36925
thorax 2.40507 -1.3235 1.38488
lowerneck -11.7502 -12.4842 -7.67618
upperneck 35.657 -18.2193 7.14262
head 16.1332 -7.40872 1.19879
rclavicle 2.31087e-014 -1.66979e-014
rhumerus -29.4769 -9.42906 -79.2463
rradius 46.6732
rwrist -161.518
rhand -26.6943 -8.90006
rfingers 7.12502
rthumb -0.124838 -38.8798
lclavicle 2.31087e-014 -1.66979e-014
lhumerus -36.8585 -16.7356 93.8107
lradius 38.1139
lwrist 11.1206
lhand -7.72802 27.9912
lfingers 7.12502
lthumb 18.1705 57.1624
rfemur -9.4535 -7.09304 15.2533
rtibia 9.48369
rfoot -10.3729 -2.79018
rtoes -17.081
lfemur -12.0462 9.97352 -20.0877
ltibia 18.5224
lfoot -16.2979 -1.76805
ltoes -25.7159
54
root 1.59934 18.4631 -0.241185 206.262 93.1297 195.818
lowerback -6.74515 -1.99624 -0.348695
upperback -1.43016 -2.63963 1.37631
thorax 2.38407 -1.30779 1.38292
lowerneck -11.7297 -12.4724 -7.6032
upperneck 35.5914 -18.2072 7.13259
head 16.0825 -7.4018 1.18742
rclavicle -2.20651e-014 -8.34896e-015
rhumerus -29.2544 -9.067 -79.1418
rradius 47.0883
rwrist -162.116
rhand -25.6615 -8.88491
rfingers 7.12502
rthumb 0.872637 -38.8629
lclavicle -2.20651e-014 -8.34896e-015
lhumerus -36.9399 -16.9741 93.788
lradius 38.5964
lwrist 11.5027
lhand -8.03224 27.185
lfingers 7.12502
lthumb 17.8778 56.3832
rfemur -9.83936 -6.86127 15.1329
rtibia 9.91332
rfoot -10.5517 -2.78865
rtoes -17.6197
lfemur -12.1583 10.1112 -20.2287
ltibia 18.5979
lfoot -16.2389 -1.71009
ltoes -25.3507
55
root 1.58208 18.4633 -0.24803 205.63 93.2768 195.161
lowerback -6.37661 -1.95816 -0.200672
upperback -1.31581 -2.60254 1.38892
thorax 2.2895 -1.29021 1.32674
lowerneck -11.7111 -12.5205 -7.57219
upperneck 35.5412 -18.2993 7.18351
head 16.0664 -7.43322 1.18603
rclavicle -8.15017e-015 1.59028e-014
rhumerus -29.0662 -8.83989 -79.0106
rradius 47.5982
rwrist -162.568
rhand -24.8492 -8.65279
rfingers 7.12502
rthumb 1.65716 -38.6261
lclavicle -8.15017e-015 1.59028e-014
lhumerus -37.0349 -17.2031 93.7372
lradius 39.107
lwrist 11.784
lhand -8.32993 26.6525
lfingers 7.12502
lthumb 17.5914 55.8767
rfemur -10.1959 -6.71981 15.0816
rtibia 10.3491
rfoot -10.7014 -2.79644
rtoes -18.1458
lfemur -12.2825 10.1196 -20.2907
ltibia 18.6819
lfoot -16.1859 -1.60425
ltoes -25.0997
56
root 1.56133 18.4641 -0.254596 206.886 93.4173 196.426
lowerback -5.9429 -1.94269 -0.162964
upperback -1.19378 -2.587 1.37047
thorax 2.17037 -1.28422 1.30049
lowerneck -11.6009 -12.6063 -7.57599
upperneck 35.3819 -18.4798 7.36204
head 16.0072 -7.49859 1.23053
rclavicle -2.24627e-014 -3.97569e-015
rhumerus -28.898 -8.68447 -78.884
rradius 48.1339
rwrist -163.035
rhand -25.1093 -8.61734
rfingers 7.12502
rthumb 1.40601 -38.5925
lclavicle -2.24627e-014 -3.97569e-015
lhumerus -37.1778 -17.3616 93.6398
lradius 39.7251
lwrist 12.0289
lhand -8.51463 26.4152
lfingers 7.12502
lthumb 17.4136 55.6552
rfemur -10.528 -6.76757 14.9506
rtibia 10.7775
rfoot -10.6923 -2.67019
rtoes -18.2746
lfemur -12.3945 10.08 -20.4504
ltibia 18.7693
lfoot -16.1686 -1.5261
ltoes -24.8536
57
root 1.54125 18.4647 -0.259919 209.266 93.5649 198.805
lowerback -5.55163 -1.96291 -0.246694
upperback -1.08352 -2.6115 1.36145
thorax 2.06942 -1.29877 1.34761
lowerneck -11.4174 -12.6636 -7.57573
upperneck 35.2613 -18.5989 7.48591
head 15.9355 -7.54607 1.26978
rclavicle -1.69464e-014 3.97569e-015
rhumerus -28.7799 -8.3052 -78.7571
rradius 48.7248
rwrist -163.666
rhand -25.2559 -8.42763
rfingers 7.12502
rthumb 1.26438 -38.4036
lclavicle -1.69464e-014 3.97569e-015
lhumerus -37.3874 -17.4635 93.5479
lradius 40.4038
lwrist 12.2302
lhand -8.29797 26.4903
lfingers 7.12502
lthumb 17.6221 55.7117
rfemur -10.8494 -6.77422 14.737
rtibia 11.2187
rfoot -10.7738 -2.60371
rtoes -18.2314
lfemur -12.5327 10.2245 -20.7056
ltibia 18.8608
lfoot -16.1209 -1.5535
ltoes -25.0032
58
root 1.52217 18.4638 -0.265034 209.891 93.7339 199.429
lowerback -5.19552 -1.98392 -0.274117
upperback -0.931508 -2.64234 1.41172
thorax 2.03136 -1.31644 1.42181
lowerneck -11.3245 -12.6994 -7.67544
upperneck 35.1681 -18.6844 7.66922
head 15.9179 -7.57933 1.34834
rclavicle -2.83268e-015 1.78906e-014
rhumerus -28.542 -7.74209 -78.6254
rradius 49.271
rwrist -164.354
rhand -25.1706 -8.22864
rfingers 7.12502
rthumb 1.34681 -38.2041
lclavicle -2.83268e-015 1.78906e-014
lhumerus -37.4512 -17.4444 93.4351
lradius 40.9677
lwrist 12.3468
lhand -7.85903 26.7767
lfingers 7.12502
lthumb 18.0445 55.9596
rfemur -11.2098 -6.79708 14.6238
rtibia 11.7023
rfoot -10.8738 -2.43444
rtoes -18.2168
lfemur -12.6636 10.364 -20.8662
ltibia 18.9547
lfoot -16.0972 -1.55414
ltoes -25.1866
59
root 1.50116 18.4636 -0.273031 210.604 93.8928 200.106
lowerback -4.8639 -1.98096 -0.224631
upperback -0.749805 -2.64504 1.43253
thorax 2.03168 -1.31963 1.42337
lowerneck -11.3105 -12.7785 -7.87975
upperneck 35.0414 -18.8515 7.97381
head 15.9448 -7.64248 1.46907
rclavicle -2.78299e-015 -1.35174e-014
rhumerus -28.2479 -7.50268 -78.4285
rradius 49.7441
rwrist -164.816
rhand -25.1413 -8.40077
rfingers 7.12502
rthumb 1.37513 -38.3761
lclavicle -2.78299e-015 -1.35174e-014
lhumerus -37.3789 -17.4408 93.2715
lradius 41.4136
lwrist 12.367
lhand -7.64547 26.9103
lfingers 7.12502
lthumb 18.2499 56.0741
rfemur -11.6215 -6.82851 14.4971
rtibia 12.1809
rfoot -10.9621 -2.27062
rtoes -18.3843
lfemur -12.8162 10.2608 -21.0275
ltibia 19.0491
lfoot -15.9622 -1.43653
ltoes -24.5797
60
root 1.47855 18.4615 -0.282103 211.06 94.081 200.469
lowerback -4.57393 -1.97013 -0.122884
upperback -0.561157 -2.63895 1.43156
thorax 2.0586 -1.31777 1.37232
lowerneck -11.3048 -12.8112 -7.93667
upperneck 34.8702 -18.9529 8.20622
head 15.9133 -7.67251 1.55114
rclavicle -1.93815e-014 0
rhumerus -27.9099 -7.1483 -78.3707
rradius 50.3571
rwrist -165.515
rhand -25.5582 -7.73053
rfingers 7.12502
rthumb 0.972422 -37.7081
lclavicle -1.93815e-014 0
lhumerus -37.3014 -17.5543 93.0826
lradius 41.9248
lwrist 12.6647
lhand -7.66447 26.8886
lfingers 7.12502
lthumb 18.2317 56.0542
rfemur -12.0783 -6.82936 14.3694
rtibia 12.6048
rfoot -11.0371 -2.09326
rtoes -18.3001
lfemur -13.031 10.0617 -21.2038
ltibia 19.1499
lfoot -15.854 -1.08699
ltoes -24.3127
61
root 1.45812 18.4606 -0.288703 211.839 94.309 201.132
lowerback -4.28318 -1.96857 -0.0970566
upperback -0.394248 -2.64039 1.43078
thorax 2.06624 -1.31987 1.36394
lowerneck -11.27 -12.8031 -7.93162
upperneck 34.7182 -18.9815 8.36556
head 15.8565 -7.67448 1.61128
rclavicle -2.56432e-014 6.36111e-015
rhumerus -27.6366 -6.78932 -78.2773
rradius 50.9568
rwrist -166.086
rhand -25.8368 -7.26075
rfingers 7.12502
rthumb 0.703395 -37.2393
lclavicle -2.56432e-014 6.36111e-015
lhumerus -37.3605 -17.5621 92.8996
lradius 42.5958
lwrist 12.9268
lhand -7.75958 26.9942
lfingers 7.12502
lthumb 18.1402 56.1683
rfemur -12.5342 -6.70988 14.1961
rtibia 12.9898
rfoot -11.0705 -2.00131
rtoes -18.2118
lfemur -13.2825 10.1053 -21.4288
ltibia 19.245
lfoot -15.8235 -0.979682
ltoes -24.4004
